{
	"asset":{
		"generator":"Khronos glTF Blender I/O v3.6.28",
		"version":"2.0"
	},
	"scene":0,
	"scenes":[
		{
			"name":"Scene",
			"nodes":[
				0
			]
		}
	],
	"nodes":[
		{
			"mesh":0,
			"name":"Plane.008",
			"rotation":[
				-0.7071068286895752,
				-0.7071068286895752,
				0,
				5.338509012631221e-08
			],
			"translation":[
				-7.709478378295898,
				6.118802070617676,
				-5.315578937530518
			]
		}
	],
	"meshes":[
		{
			"name":"Plane.009",
			"primitives":[
				{
					"attributes":{
						"POSITION":0,
						"TEXCOORD_0":1
					},
					"indices":2
				}
			]
		}
	],
	"accessors":[
		{
			"bufferView":0,
			"componentType":5126,
			"count":4,
			"max":[
				1.3012560606002808,
				2.2744202965441218e-08,
				2.44026780128479
			],
			"min":[
				-1.3012560606002808,
				-2.2744202965441218e-08,
				-2.44026780128479
			],
			"type":"VEC3"
		},
		{
			"bufferView":1,
			"componentType":5126,
			"count":4,
			"type":"VEC2"
		},
		{
			"bufferView":2,
			"componentType":5123,
			"count":6,
			"type":"SCALAR"
		}
	],
	"bufferViews":[
		{
			"buffer":0,
			"byteLength":48,
			"byteOffset":0,
			"target":34962
		},
		{
			"buffer":0,
			"byteLength":32,
			"byteOffset":48,
			"target":34962
		},
		{
			"buffer":0,
			"byteLength":12,
			"byteOffset":80,
			"target":34963
		}
	],
	"buffers":[
		{
			"byteLength":92,
			"uri":"data:application/octet-stream;base64,"
		}
	]
}
