{
	"asset":{
		"generator":"Khronos glTF Blender I/O v3.6.28",
		"version":"2.0"
	},
	"scene":0,
	"scenes":[
		{
			"name":"Scene",
			"nodes":[
				0,
				1,
				3,
				4,
				5
			]
		}
	],
	"nodes":[
		{
			"mesh":0,
			"name":"Circle"
		},
		{
			"mesh":1,
			"name":"Vert",
			"translation":[
				0,
				0.7945652604103088,
				0
			]
		},
		{
			"mesh":2,
			"name":"Circle.001"
		},
		{
			"children":[
				2
			],
			"mesh":3,
			"name":"Cube",
			"rotation":[
				0.4559274911880493,
				0,
				0,
				0.8900169134140015
			],
			"translation":[
				0,
				3.2426414489746094,
				-0.06528203189373016
			]
		},
		{
			"mesh":4,
			"name":"Plane",
			"rotation":[
				0.5,
				-0.4999999701976776,
				0,
				0.7071067690849304
			],
			"translation":[
				0.13373732566833496,
				1.094834327697754,
				0.069435253739357
			]
		},
		{
			"name":"Lattice",
			"scale":[
				3.7290749549865723,
				4.108275413513184,
				3.7290749549865723
			],
			"translation":[
				0,
				2.0778427124023438,
				0
			]
		}
	],
	"materials":[
		{
			"doubleSided":true,
			"name":"Material.001",
			"pbrMetallicRoughness":{
				"baseColorFactor":[
					0.4040289521217346,
					0.07131282985210419,
					0.03256875276565552,
					1
				],
				"metallicFactor":0,
				"roughnessFactor":0.5
			}
		},
		{
			"doubleSided":true,
			"name":"Material.007",
			"pbrMetallicRoughness":{
				"baseColorFactor":[
					0.15598419308662415,
					0.3449724316596985,
					0.021590953692793846,
					1
				],
				"metallicFactor":0
			}
		},
		{
			"doubleSided":true,
			"name":"Material.002",
			"pbrMetallicRoughness":{
				"baseColorFactor":[
					0.27308258414268494,
					0.6148138642311096,
					0.03483200445771217,
					1
				],
				"metallicFactor":0
			}
		},
		{
			"doubleSided":true,
			"name":"Material.005",
			"pbrMetallicRoughness":{
				"baseColorFactor":[
					0.8000000715255737,
					0.035170238465070724,
					0,
					1
				],
				"metallicFactor":0,
				"roughnessFactor":0.20000000298023224
			}
		},
		{
			"doubleSided":true,
			"name":"Material.006",
			"pbrMetallicRoughness":{
				"baseColorFactor":[
					0.8000000715255737,
					0.4939501881599426,
					0,
					1
				],
				"metallicFactor":0,
				"roughnessFactor":0.5
			}
		},
		{
			"doubleSided":true,
			"name":"Material.003",
			"pbrMetallicRoughness":{
				"metallicFactor":0,
				"roughnessFactor":0.5
			}
		}
	],
	"meshes":[
		{
			"name":"Circle",
			"primitives":[
				{
					"attributes":{
						"POSITION":0,
						"NORMAL":1,
						"TEXCOORD_0":2
					},
					"indices":3,
					"material":0
				},
				{
					"attributes":{
						"POSITION":4,
						"NORMAL":5,
						"TEXCOORD_0":6
					},
					"indices":7,
					"material":1
				}
			]
		},
		{
			"name":"Vert.001",
			"primitives":[
				{
					"attributes":{
						"POSITION":8,
						"NORMAL":9,
						"TEXCOORD_0":10
					},
					"indices":11,
					"material":2
				}
			]
		},
		{
			"name":"Circle.002",
			"primitives":[
				{
					"attributes":{
						"POSITION":12,
						"NORMAL":13,
						"TEXCOORD_0":14
					},
					"indices":15,
					"material":3
				},
				{
					"attributes":{
						"POSITION":16,
						"NORMAL":17,
						"TEXCOORD_0":18
					},
					"indices":15,
					"material":4
				}
			]
		},
		{
			"name":"Cube.001",
			"primitives":[
				{
					"attributes":{
						"POSITION":19,
						"NORMAL":20,
						"TEXCOORD_0":21
					},
					"indices":22,
					"material":5
				}
			]
		},
		{
			"name":"Plane",
			"primitives":[
				{
					"attributes":{
						"POSITION":23,
						"NORMAL":24,
						"TEXCOORD_0":25
					},
					"indices":26,
					"material":2
				}
			]
		}
	],
	"accessors":[
		{
			"bufferView":0,
			"componentType":5126,
			"count":3842,
			"max":[
				1.0036028623580933,
				0.3667859137058258,
				0.9932495951652527
			],
			"min":[
				-0.9738171696662903,
				-0.006637135986238718,
				-0.9932495951652527
			],
			"type":"VEC3"
		},
		{
			"bufferView":1,
			"componentType":5126,
			"count":3842,
			"type":"VEC3"
		},
		{
			"bufferView":2,
			"componentType":5126,
			"count":3842,
			"type":"VEC2"
		},
		{
			"bufferView":3,
			"componentType":5123,
			"count":23040,
			"type":"SCALAR"
		},
		{
			"bufferView":4,
			"componentType":5126,
			"count":5378,
			"max":[
				1.0402652025222778,
				0.7769330143928528,
				1.0223277807235718
			],
			"min":[
				-0.9860835075378418,
				0.36321914196014404,
				-1.0223277807235718
			],
			"type":"VEC3"
		},
		{
			"bufferView":5,
			"componentType":5126,
			"count":5378,
			"type":"VEC3"
		},
		{
			"bufferView":6,
			"componentType":5126,
			"count":5378,
			"type":"VEC2"
		},
		{
			"bufferView":7,
			"componentType":5123,
			"count":32256,
			"type":"SCALAR"
		},
		{
			"bufferView":8,
			"componentType":5126,
			"count":886,
			"max":[
				0.19329683482646942,
				2.598604202270508,
				0.14979326725006104
			],
			"min":[
				-0.38815027475357056,
				-0.0280251856893301,
				-0.4539324641227722
			],
			"type":"VEC3"
		},
		{
			"bufferView":9,
			"componentType":5126,
			"count":886,
			"type":"VEC3"
		},
		{
			"bufferView":10,
			"componentType":5126,
			"count":886,
			"type":"VEC2"
		},
		{
			"bufferView":11,
			"componentType":5123,
			"count":4608,
			"type":"SCALAR"
		},
		{
			"bufferView":12,
			"componentType":5126,
			"count":1717,
			"max":[
				1.0099331140518188,
				0.38636133074760437,
				1.0996766090393066
			],
			"min":[
				-1.4852806329727173,
				-0.2732887864112854,
				-1.2446497678756714
			],
			"type":"VEC3"
		},
		{
			"bufferView":13,
			"componentType":5126,
			"count":1717,
			"type":"VEC3"
		},
		{
			"bufferView":14,
			"componentType":5126,
			"count":1717,
			"type":"VEC2"
		},
		{
			"bufferView":15,
			"componentType":5123,
			"count":9216,
			"type":"SCALAR"
		},
		{
			"bufferView":16,
			"componentType":5126,
			"count":1717,
			"max":[
				0.6850756406784058,
				0.33029913902282715,
				0.8225743174552917
			],
			"min":[
				-1.1630569696426392,
				-0.2478293478488922,
				-0.9293389916419983
			],
			"type":"VEC3"
		},
		{
			"bufferView":17,
			"componentType":5126,
			"count":1717,
			"type":"VEC3"
		},
		{
			"bufferView":18,
			"componentType":5126,
			"count":1717,
			"type":"VEC2"
		},
		{
			"bufferView":19,
			"componentType":5126,
			"count":441,
			"max":[
				0.38508573174476624,
				0.2789452373981476,
				0.4649215042591095
			],
			"min":[
				-0.8653513789176941,
				-0.23242123425006866,
				-0.540161669254303
			],
			"type":"VEC3"
		},
		{
			"bufferView":20,
			"componentType":5126,
			"count":441,
			"type":"VEC3"
		},
		{
			"bufferView":21,
			"componentType":5126,
			"count":441,
			"type":"VEC2"
		},
		{
			"bufferView":22,
			"componentType":5123,
			"count":2304,
			"type":"SCALAR"
		},
		{
			"bufferView":23,
			"componentType":5126,
			"count":1033,
			"max":[
				0.5499848127365112,
				1.192376732826233,
				0.8746711611747742
			],
			"min":[
				-1.7295035123825073,
				-0.8136569261550903,
				-1.8696134090423584
			],
			"type":"VEC3"
		},
		{
			"bufferView":24,
			"componentType":5126,
			"count":1033,
			"type":"VEC3"
		},
		{
			"bufferView":25,
			"componentType":5126,
			"count":1033,
			"type":"VEC2"
		},
		{
			"bufferView":26,
			"componentType":5123,
			"count":5184,
			"type":"SCALAR"
		}
	],
	"bufferViews":[
		{
			"buffer":0,
			"byteLength":46104,
			"byteOffset":0,
			"target":34962
		},
		{
			"buffer":0,
			"byteLength":46104,
			"byteOffset":46104,
			"target":34962
		},
		{
			"buffer":0,
			"byteLength":30736,
			"byteOffset":92208,
			"target":34962
		},
		{
			"buffer":0,
			"byteLength":46080,
			"byteOffset":122944,
			"target":34963
		},
		{
			"buffer":0,
			"byteLength":64536,
			"byteOffset":169024,
			"target":34962
		},
		{
			"buffer":0,
			"byteLength":64536,
			"byteOffset":233560,
			"target":34962
		},
		{
			"buffer":0,
			"byteLength":43024,
			"byteOffset":298096,
			"target":34962
		},
		{
			"buffer":0,
			"byteLength":64512,
			"byteOffset":341120,
			"target":34963
		},
		{
			"buffer":0,
			"byteLength":10632,
			"byteOffset":405632,
			"target":34962
		},
		{
			"buffer":0,
			"byteLength":10632,
			"byteOffset":416264,
			"target":34962
		},
		{
			"buffer":0,
			"byteLength":7088,
			"byteOffset":426896,
			"target":34962
		},
		{
			"buffer":0,
			"byteLength":9216,
			"byteOffset":433984,
			"target":34963
		},
		{
			"buffer":0,
			"byteLength":20604,
			"byteOffset":443200,
			"target":34962
		},
		{
			"buffer":0,
			"byteLength":20604,
			"byteOffset":463804,
			"target":34962
		},
		{
			"buffer":0,
			"byteLength":13736,
			"byteOffset":484408,
			"target":34962
		},
		{
			"buffer":0,
			"byteLength":18432,
			"byteOffset":498144,
			"target":34963
		},
		{
			"buffer":0,
			"byteLength":20604,
			"byteOffset":516576,
			"target":34962
		},
		{
			"buffer":0,
			"byteLength":20604,
			"byteOffset":537180,
			"target":34962
		},
		{
			"buffer":0,
			"byteLength":13736,
			"byteOffset":557784,
			"target":34962
		},
		{
			"buffer":0,
			"byteLength":5292,
			"byteOffset":571520,
			"target":34962
		},
		{
			"buffer":0,
			"byteLength":5292,
			"byteOffset":576812,
			"target":34962
		},
		{
			"buffer":0,
			"byteLength":3528,
			"byteOffset":582104,
			"target":34962
		},
		{
			"buffer":0,
			"byteLength":4608,
			"byteOffset":585632,
			"target":34963
		},
		{
			"buffer":0,
			"byteLength":12396,
			"byteOffset":590240,
			"target":34962
		},
		{
			"buffer":0,
			"byteLength":12396,
			"byteOffset":602636,
			"target":34962
		},
		{
			"buffer":0,
			"byteLength":8264,
			"byteOffset":615032,
			"target":34962
		},
		{
			"buffer":0,
			"byteLength":10368,
			"byteOffset":623296,
			"target":34963
		}
	],
	"buffers":[
		{
			"byteLength":633664,
			"uri":"data:application/octet-stream;base64,"
		}
	]
}
