{
	"asset":{
		"generator":"Khronos glTF Blender I/O v3.6.28",
		"version":"2.0"
	},
	"scene":0,
	"scenes":[
		{
			"name":"Scene",
			"nodes":[
				0
			]
		}
	],
	"nodes":[
		{
			"mesh":0,
			"name":"Cube.033",
			"rotation":[
				0,
				-1,
				0,
				7.549790126404332e-08
			],
			"scale":[
				0.612000048160553,
				0.612000048160553,
				0.612000048160553
			],
			"translation":[
				-7.989191055297852,
				10.160627365112305,
				-3.6854171752929688
			]
		}
	],
	"meshes":[
		{
			"name":"Cube.046",
			"primitives":[
				{
					"attributes":{
						"POSITION":0,
						"TEXCOORD_0":1
					},
					"indices":2
				}
			]
		}
	],
	"accessors":[
		{
			"bufferView":0,
			"componentType":5126,
			"count":294,
			"max":[
				0.9910740852355957,
				0.9910741448402405,
				0.9910740256309509
			],
			"min":[
				-0.9910739660263062,
				-0.9910738468170166,
				-0.9910740256309509
			],
			"type":"VEC3"
		},
		{
			"bufferView":1,
			"componentType":5126,
			"count":294,
			"type":"VEC2"
		},
		{
			"bufferView":2,
			"componentType":5123,
			"count":1296,
			"type":"SCALAR"
		}
	],
	"bufferViews":[
		{
			"buffer":0,
			"byteLength":3528,
			"byteOffset":0,
			"target":34962
		},
		{
			"buffer":0,
			"byteLength":2352,
			"byteOffset":3528,
			"target":34962
		},
		{
			"buffer":0,
			"byteLength":2592,
			"byteOffset":5880,
			"target":34963
		}
	],
	"buffers":[
		{
			"byteLength":8472,
			"uri":"data:application/octet-stream;base64,"
		}
	]
}
